<svg width="197" height="95" viewBox="0 0 197 95" fill="none" xmlns="http://www.w3.org/2000/svg">
<g filter="url(#filter0_d_54_14)">
<mask id="path-1-outside-1_54_14" maskUnits="userSpaceOnUse" x="-4" y="-4" width="199" height="98" fill="black">
<rect fill="white" x="-4" y="-4" width="199" height="98"/>
<path d="M86.952 7.56799V83.856L80.168 90H5.672L0.168 83.856V7.56799L5.032 0.143997H80.168L86.952 7.56799ZM29.736 20.496V47.504L22.952 54.288V65.936H60.456V43.792L66.088 38.288V20.496H29.736ZM117.897 10.768L127.753 0.399994H182.281L189.065 7.696V46.48H181.769L190.857 56.848V77.712L179.209 90H112.393L103.177 81.424L103.817 49.424H154.761L162.697 57.488V62.992H128.905L125.193 66.704V71.568H150.409L155.273 66.704H168.841V59.28L156.553 45.84H111.113L103.817 37.776V8.336L111.113 0.399994H117.897V10.768ZM125.193 29.84H151.049L154.121 33.552H167.561L169.481 34.704V18.832H135.049L125.193 29.84Z"/>
</mask>
<path d="M86.952 7.56799V83.856L80.168 90H5.672L0.168 83.856V7.56799L5.032 0.143997H80.168L86.952 7.56799ZM29.736 20.496V47.504L22.952 54.288V65.936H60.456V43.792L66.088 38.288V20.496H29.736ZM117.897 10.768L127.753 0.399994H182.281L189.065 7.696V46.48H181.769L190.857 56.848V77.712L179.209 90H112.393L103.177 81.424L103.817 49.424H154.761L162.697 57.488V62.992H128.905L125.193 66.704V71.568H150.409L155.273 66.704H168.841V59.28L156.553 45.84H111.113L103.817 37.776V8.336L111.113 0.399994H117.897V10.768ZM125.193 29.84H151.049L154.121 33.552H167.561L169.481 34.704V18.832H135.049L125.193 29.84Z" fill="#571FF5"/>
<path d="M86.952 7.56799H90.952V6.01566L89.9048 4.86971L86.952 7.56799ZM86.952 83.856L89.6371 86.8208L90.952 85.63V83.856H86.952ZM80.168 90V94H81.7101L82.8531 92.9648L80.168 90ZM5.672 90L2.69266 92.669L3.88502 94H5.672V90ZM0.168 83.856H-3.832V85.3857L-2.81134 86.525L0.168 83.856ZM0.168 7.56799L-3.17784 5.37589L-3.832 6.37434V7.56799H0.168ZM5.032 0.143997V-3.856H2.87064L1.68616 -2.04811L5.032 0.143997ZM80.168 0.143997L83.1208 -2.55429L81.9313 -3.856H80.168V0.143997ZM29.736 20.496V16.496H25.736V20.496H29.736ZM29.736 47.504L32.5644 50.3324L33.736 49.1609V47.504H29.736ZM22.952 54.288L20.1236 51.4596L18.952 52.6311V54.288H22.952ZM22.952 65.936H18.952V69.936H22.952V65.936ZM60.456 65.936V69.936H64.456V65.936H60.456ZM60.456 43.792L57.6603 40.9312L56.456 42.1081V43.792H60.456ZM66.088 38.288L68.8837 41.1487L70.088 39.9718V38.288H66.088ZM66.088 20.496H70.088V16.496H66.088V20.496ZM82.952 7.56799V83.856H90.952V7.56799H82.952ZM84.2669 80.8912L77.4829 87.0352L82.8531 92.9648L89.6371 86.8208L84.2669 80.8912ZM80.168 86H5.672V94H80.168V86ZM8.65134 87.331L3.14734 81.187L-2.81134 86.525L2.69266 92.669L8.65134 87.331ZM4.168 83.856V7.56799H-3.832V83.856H4.168ZM3.51384 9.7601L8.37784 2.3361L1.68616 -2.04811L-3.17784 5.37589L3.51384 9.7601ZM5.032 4.144H80.168V-3.856H5.032V4.144ZM77.2152 2.84228L83.9992 10.2663L89.9048 4.86971L83.1208 -2.55429L77.2152 2.84228ZM25.736 20.496V47.504H33.736V20.496H25.736ZM26.9076 44.6756L20.1236 51.4596L25.7804 57.1164L32.5644 50.3324L26.9076 44.6756ZM18.952 54.288V65.936H26.952V54.288H18.952ZM22.952 69.936H60.456V61.936H22.952V69.936ZM64.456 65.936V43.792H56.456V65.936H64.456ZM63.2517 46.6527L68.8837 41.1487L63.2923 35.4272L57.6603 40.9312L63.2517 46.6527ZM70.088 38.288V20.496H62.088V38.288H70.088ZM66.088 16.496H29.736V24.496H66.088V16.496ZM117.897 10.768H113.897V20.7814L120.796 13.5239L117.897 10.768ZM127.753 0.399994V-3.60001H126.037L124.854 -2.35594L127.753 0.399994ZM182.281 0.399994L185.21 -2.32378L184.024 -3.60001H182.281V0.399994ZM189.065 7.696H193.065V6.12369L191.994 4.97223L189.065 7.696ZM189.065 46.48V50.48H193.065V46.48H189.065ZM181.769 46.48V42.48H172.944L178.761 49.1166L181.769 46.48ZM190.857 56.848H194.857V55.3431L193.865 54.2114L190.857 56.848ZM190.857 77.712L193.76 80.4638L194.857 79.3066V77.712H190.857ZM179.209 90V94H180.929L182.112 92.7518L179.209 90ZM112.393 90L109.668 92.9283L110.82 94H112.393V90ZM103.177 81.424L99.1778 81.344L99.142 83.1332L100.452 84.3523L103.177 81.424ZM103.817 49.424V45.424H99.8962L99.8178 49.344L103.817 49.424ZM154.761 49.424L157.612 46.6183L156.437 45.424H154.761V49.424ZM162.697 57.488H166.697V55.8499L165.548 54.6823L162.697 57.488ZM162.697 62.992V66.992H166.697V62.992H162.697ZM128.905 62.992V58.992H127.248L126.077 60.1636L128.905 62.992ZM125.193 66.704L122.365 63.8756L121.193 65.0471V66.704H125.193ZM125.193 71.568H121.193V75.568H125.193V71.568ZM150.409 71.568V75.568H152.066L153.237 74.3964L150.409 71.568ZM155.273 66.704V62.704H153.616L152.445 63.8756L155.273 66.704ZM168.841 66.704V70.704H172.841V66.704H168.841ZM168.841 59.28H172.841V57.727L171.793 56.5809L168.841 59.28ZM156.553 45.84L159.505 43.1409L158.316 41.84H156.553V45.84ZM111.113 45.84L108.147 48.5236L109.338 49.84H111.113V45.84ZM103.817 37.776H99.817V39.317L100.851 40.4597L103.817 37.776ZM103.817 8.336L100.872 5.6288L99.817 6.7767V8.336H103.817ZM111.113 0.399994V-3.60001H109.357L108.168 -2.3072L111.113 0.399994ZM117.897 0.399994H121.897V-3.60001H117.897V0.399994ZM125.193 29.84L122.213 27.1718L116.243 33.84H125.193V29.84ZM151.049 29.84L154.131 27.2897L152.931 25.84H151.049V29.84ZM154.121 33.552L151.039 36.1023L152.239 37.552H154.121V33.552ZM167.561 33.552L169.619 30.122L168.669 29.552H167.561V33.552ZM169.481 34.704L167.423 38.134L173.481 41.7688V34.704H169.481ZM169.481 18.832H173.481V14.832H169.481V18.832ZM135.049 18.832V14.832H133.261L132.069 16.1638L135.049 18.832ZM120.796 13.5239L130.652 3.15593L124.854 -2.35594L114.998 8.01206L120.796 13.5239ZM127.753 4.39999H182.281V-3.60001H127.753V4.39999ZM179.352 3.12377L186.136 10.4198L191.994 4.97223L185.21 -2.32378L179.352 3.12377ZM185.065 7.696V46.48H193.065V7.696H185.065ZM189.065 42.48H181.769V50.48H189.065V42.48ZM178.761 49.1166L187.849 59.4846L193.865 54.2114L184.777 43.8434L178.761 49.1166ZM186.857 56.848V77.712H194.857V56.848H186.857ZM187.954 74.9602L176.306 87.2482L182.112 92.7518L193.76 80.4638L187.954 74.9602ZM179.209 86H112.393V94H179.209V86ZM115.118 87.0717L105.902 78.4957L100.452 84.3523L109.668 92.9283L115.118 87.0717ZM107.176 81.504L107.816 49.504L99.8178 49.344L99.1778 81.344L107.176 81.504ZM103.817 53.424H154.761V45.424H103.817V53.424ZM151.91 52.2297L159.846 60.2937L165.548 54.6823L157.612 46.6183L151.91 52.2297ZM158.697 57.488V62.992H166.697V57.488H158.697ZM162.697 58.992H128.905V66.992H162.697V58.992ZM126.077 60.1636L122.365 63.8756L128.021 69.5324L131.733 65.8204L126.077 60.1636ZM121.193 66.704V71.568H129.193V66.704H121.193ZM125.193 75.568H150.409V67.568H125.193V75.568ZM153.237 74.3964L158.101 69.5324L152.445 63.8756L147.581 68.7396L153.237 74.3964ZM155.273 70.704H168.841V62.704H155.273V70.704ZM172.841 66.704V59.28H164.841V66.704H172.841ZM171.793 56.5809L159.505 43.1409L153.601 48.5391L165.889 61.9791L171.793 56.5809ZM156.553 41.84H111.113V49.84H156.553V41.84ZM114.079 43.1563L106.783 35.0923L100.851 40.4597L108.147 48.5236L114.079 43.1563ZM107.817 37.776V8.336H99.817V37.776H107.817ZM106.762 11.0432L114.058 3.10719L108.168 -2.3072L100.872 5.6288L106.762 11.0432ZM111.113 4.39999H117.897V-3.60001H111.113V4.39999ZM113.897 0.399994V10.768H121.897V0.399994H113.897ZM125.193 33.84H151.049V25.84H125.193V33.84ZM147.967 32.3903L151.039 36.1023L157.203 31.0017L154.131 27.2897L147.967 32.3903ZM154.121 37.552H167.561V29.552H154.121V37.552ZM165.503 36.982L167.423 38.134L171.539 31.274L169.619 30.122L165.503 36.982ZM173.481 34.704V18.832H165.481V34.704H173.481ZM169.481 14.832H135.049V22.832H169.481V14.832ZM132.069 16.1638L122.213 27.1718L128.173 32.5082L138.029 21.5002L132.069 16.1638Z" fill="#BEFF05" mask="url(#path-1-outside-1_54_14)"/>
</g>
<defs>
<filter id="filter0_d_54_14" x="0.167999" y="0.143982" width="196.689" height="94.856" filterUnits="userSpaceOnUse" color-interpolation-filters="sRGB">
<feFlood flood-opacity="0" result="BackgroundImageFix"/>
<feColorMatrix in="SourceAlpha" type="matrix" values="0 0 0 0 0 0 0 0 0 0 0 0 0 0 0 0 0 0 127 0" result="hardAlpha"/>
<feOffset dx="6" dy="5"/>
<feComposite in2="hardAlpha" operator="out"/>
<feColorMatrix type="matrix" values="0 0 0 0 0.968627 0 0 0 0 0.152941 0 0 0 0 0.596078 0 0 0 1 0"/>
<feBlend mode="normal" in2="BackgroundImageFix" result="effect1_dropShadow_54_14"/>
<feBlend mode="normal" in="SourceGraphic" in2="effect1_dropShadow_54_14" result="shape"/>
</filter>
</defs>
</svg>
